<?xml version="1.0" encoding="UTF-8"?>
<svg width="170px" height="28px" viewBox="0 0 170 28" version="1.1" xmlns="http://www.w3.org/2000/svg" xmlns:xlink="http://www.w3.org/1999/xlink">
    <!-- Generator: Sketch 52.6 (67491) - http://www.bohemiancoding.com/sketch -->
    <title>logo-horizontal</title>
    <desc>Created with Sketch.</desc>
    <defs>
        <linearGradient x1="4.03269509%" y1="95.9673049%" x2="100%" y2="0%" id="linearGradient-1">
            <stop stop-color="#F31542" offset="0%"></stop>
            <stop stop-color="#FF7D00" offset="100%"></stop>
        </linearGradient>
    </defs>
    <g id="Оплата" stroke="none" stroke-width="1" fill="none" fill-rule="evenodd">
        <g id="Страница-Оплаты-320-px" transform="translate(-30.000000, -16.000000)">
            <g id="header-/-1440-1024">
                <g id="logo-horizontal" transform="translate(30.000000, 16.000000)">
                    <path d="M28.7418098,10.4879605 C34.0586118,10.4879605 37.29,15.2862867 37.29,19.1111349 C37.29,24.0025335 33.3248855,27.967648 28.4336513,27.967648 L18.6450987,27.967648 C18.6450987,24.1059656 21.7755214,20.9757072 25.636875,20.9757072 L28.5502385,20.9757072 C29.5156591,20.9757072 30.2982237,20.1931426 30.2982237,19.227722 C30.2982237,18.2623014 29.5156591,17.4799013 28.5502385,17.4799013 L27.2618599,17.4799013 C21.9998161,17.4799013 18.6450987,12.7922424 18.6450987,8.85639802 C18.6450987,3.96516382 22.6102131,4.93316612e-05 27.5014474,4.93316612e-05 L37.2625387,4.93316612e-05 C37.2625387,3.86156733 34.1322804,6.99199011 30.2707624,6.99199011 L27.3848602,6.99199011 C26.419604,6.99199011 25.636875,7.77455469 25.636875,8.7399753 C25.636875,9.70523147 26.419604,10.4879605 27.3848602,10.4879605 L28.7418098,10.4879605 Z M16.3144737,0 L16.3144737,9.32253289 L16.3144737,19.8104441 C16.3144737,24.3155758 12.6622863,27.9675987 8.15731905,27.9675987 C3.65202288,27.9675987 0,24.3155758 0,19.8104441 L0,19.626437 L0,13.9889792 C3.08931306,13.9889792 6.88785097,16.4195501 6.88785097,19.9916557 C6.88785097,20.5762359 7.50778551,20.9758223 8.09220126,20.9758223 C8.77166267,20.9758223 9.32236845,20.4249521 9.32236845,19.7454907 L9.32236845,4.66134866 C9.32236845,2.08689371 11.4094266,0 13.9837171,0 L16.3144737,0 Z" id="JS-3" fill="url(#linearGradient-1)"></path>
                    <g id="CADEMY" transform="translate(47.493671, 4.253165)" fill="#FFFFFF">
                        <path d="M14.5068354,15.3007595 C14.6441286,15.3062956 14.7727613,15.3693256 14.8612658,15.4744304 L15.8820253,16.5731646 C15.1028603,17.4745463 14.1347996,18.1933313 13.0465823,18.678481 C11.7758912,19.213502 10.4055649,19.4708913 9.02734177,19.4334177 C7.75633449,19.450335 6.49510989,19.209183 5.32,18.724557 C4.2436783,18.2735368 3.27673968,17.5966798 2.48455696,16.7397468 C1.67696796,15.8503392 1.05625296,14.807779 0.659240506,13.6739241 C0.214712881,12.4105321 -0.00481451572,11.0789725 0.0106329114,9.73974684 C-0.00561825309,8.39834495 0.222577911,7.06519894 0.684050633,5.80556962 C1.10324403,4.66346443 1.74949332,3.61813209 2.58379747,2.73265823 C3.41119544,1.86985943 4.41115746,1.19114125 5.51848101,0.740759494 C6.71734792,0.256824039 8.00040836,0.015873722 9.29316456,0.0318987342 C10.5165159,0.00797547947 11.7323365,0.228486053 12.8693671,0.680506329 C13.879276,1.10033497 14.8041213,1.70088385 15.598481,2.45265823 L14.7513924,3.62936709 C14.6993851,3.71648358 14.6292826,3.79142071 14.5458228,3.84911392 C14.439758,3.91450215 14.315581,3.94430463 14.1913924,3.93417722 C13.9757704,3.90928224 13.772932,3.81899439 13.6101266,3.67544304 C13.3218297,3.46509148 13.0212085,3.27217313 12.7098734,3.09772152 C11.6583629,2.51593823 10.4695235,2.22821704 9.26835443,2.26481013 C8.34772164,2.25372946 7.43420498,2.42727352 6.58177215,2.77518987 C5.7895355,3.10974081 5.08049419,3.61429751 4.50481013,4.25316456 C3.89348462,4.93839421 3.4269323,5.74009264 3.13316456,6.61012658 C2.79359593,7.62043484 2.62820309,8.68110636 2.64405063,9.74683544 C2.62661275,10.8236693 2.79939004,11.8951285 3.15443038,12.9118987 C3.46060001,13.7715925 3.93265887,14.5627728 4.54379747,15.2405063 C5.12195113,15.8746651 5.8321312,16.3743318 6.6243038,16.7043038 C7.44430168,17.0437846 8.32418302,17.2149396 9.21164557,17.2075949 C9.72256299,17.2111251 10.2330743,17.1779596 10.7392405,17.1083544 C11.1683143,17.048216 11.5899844,16.9436893 11.9974684,16.7964557 C12.3709363,16.6587027 12.7276321,16.4791658 13.0607595,16.2612658 C13.4097914,16.031114 13.7393373,15.7726931 14.0460759,15.4886076 C14.1706358,15.3703715 14.3351136,15.3033152 14.5068354,15.3007595 Z" id="Path"></path>
                        <path d="M59.0587342,9.74329114 C59.0766914,11.0675143 58.8483402,12.3835385 58.3853165,13.6243038 C57.964449,14.7430901 57.3150296,15.7618819 56.478481,16.6156962 C55.6378217,17.4576073 54.6295038,18.1133159 53.5189873,18.5402532 C52.2999357,19.0068141 51.0034013,19.2377367 49.6982278,19.2207595 L42.6096203,19.2207595 L42.6096203,0.248101266 L49.6982278,0.248101266 C51.0033732,0.231467639 52.2998435,0.462378862 53.5189873,0.928607595 C54.6306156,1.35668083 55.6391705,2.01495915 56.478481,2.86025316 C57.3143103,3.71736455 57.9635583,4.73830095 58.3853165,5.85873418 C58.8487735,7.10061285 59.0771317,8.41787929 59.0587342,9.74329114 Z M56.4253165,9.74329114 C56.4412924,8.68187236 56.2795661,7.6252605 55.9468354,6.61721519 C55.6581656,5.75382659 55.1935236,4.95971106 54.5822785,4.28506329 C53.9924134,3.64525385 53.2653915,3.14724386 52.4556962,2.82835443 C51.569527,2.48230268 50.6246593,2.31138392 49.6734177,2.32506329 L45.1827848,2.32506329 L45.1827848,17.1402532 L49.6982278,17.1402532 C50.6494694,17.1539325 51.5943372,16.9830138 52.4805063,16.636962 C53.2891211,16.3193721 54.0159264,15.8239331 54.6070886,15.1873418 C55.2137444,14.5158189 55.6736648,13.7251421 55.9574684,12.8658228 C56.2862008,11.8582912 56.4443261,10.8029249 56.4253165,9.74329114 Z" id="Shape" fill-rule="nonzero"></path>
                        <path d="M101.459241,0.248101266 L101.459241,19.2207595 L99.2086076,19.2207595 L99.2086076,5.28101266 C99.2086076,5.09670886 99.2086076,4.89822785 99.2298734,4.68556962 C99.2511392,4.47291139 99.2582278,4.25670886 99.2759494,4.03696203 L92.7579747,15.8997468 C92.5989611,16.2691367 92.2314138,16.5048159 91.8293671,16.4951899 L91.4749367,16.4951899 C91.07289,16.5048159 90.7053427,16.2691367 90.5463291,15.8997468 L83.8865823,3.98379747 C83.9367927,4.41440583 83.9628251,4.84749028 83.964557,5.28101266 L83.964557,19.2207595 L81.7139241,19.2207595 L81.7139241,0.248101266 L83.6065823,0.248101266 C83.785108,0.241654097 83.9634887,0.264400622 84.1346835,0.315443038 C84.2894143,0.390238732 84.4143182,0.515142636 84.4891139,0.669873418 L91.0425316,12.3483544 C91.1488608,12.5610127 91.252827,12.7819409 91.3544304,13.0111392 C91.4560338,13.2403376 91.5505485,13.4766245 91.6379747,13.72 C91.7254008,13.4837131 91.8187342,13.2474262 91.9179747,13.0111392 C92.0124836,12.782409 92.1189599,12.5588089 92.236962,12.3412658 L98.6698734,0.676962025 C98.7409105,0.519597161 98.8669389,0.393568699 99.0243038,0.322531646 C99.1979963,0.271825024 99.3786538,0.249093291 99.5594937,0.255189873 L101.459241,0.248101266 Z" id="Path"></path>
                        <path d="M115.189873,11.6607595 L115.189873,19.2207595 L112.620253,19.2207595 L112.620253,11.6607595 L105.676962,0.248101266 L107.927595,0.248101266 C108.122392,0.23754373 108.314597,0.296587252 108.469873,0.414683544 C108.614101,0.533910779 108.734375,0.679442397 108.824304,0.843544304 L113.166076,8.21924051 C113.324388,8.52877637 113.469705,8.81822785 113.602025,9.08759494 C113.735901,9.35221047 113.854245,9.62440169 113.956456,9.90278481 C114.053333,9.62869198 114.163207,9.35696203 114.286076,9.08759494 C114.408945,8.81822785 114.545992,8.52877637 114.697215,8.21924051 L119.028354,0.843544304 C119.112187,0.687510823 119.223906,0.548162513 119.357975,0.432405063 C119.509506,0.305638703 119.702858,0.239924302 119.900253,0.248101266 L122.165063,0.248101266 L115.189873,11.6607595 Z" id="Path"></path>
                        <rect id="Rectangle" x="64.4744304" y="0.248101266" width="11.6926582" height="2.09113924"></rect>
                        <rect id="Rectangle" x="64.4744304" y="8.72962025" width="11.7032911" height="2.00607595"></rect>
                        <polygon id="Path" points="64.4744304 17.1296203 64.4744304 19.2207595 76.1635443 19.2207595 76.1777215 17.1296203"></polygon>
                        <path d="M30.1655696,0.248101266 L27.5711392,0.248101266 L19.9863291,19.2207595 L21.9746835,19.2207595 C22.1762822,19.2281369 22.3738028,19.1627161 22.5311392,19.0364557 C22.6708642,18.9277891 22.7766207,18.7814516 22.8359494,18.6146835 L28.3048101,4.47291139 C28.5332064,3.89517803 28.723819,3.30321353 28.875443,2.70075949 C28.9628692,3.0457384 29.0562025,3.37063291 29.155443,3.67544304 C29.2546835,3.98025316 29.3468354,4.24725738 29.4318987,4.4764557 L34.9007595,18.6288608 C34.9677873,18.7992141 35.0776622,18.9493765 35.2197468,19.0648101 C35.3791292,19.1861591 35.5760911,19.2476313 35.7762025,19.238481 L37.7610127,19.238481 L30.1655696,0.248101266 Z" id="Path"></path>
                    </g>
                </g>
            </g>
        </g>
    </g>
</svg>